<svg xmlns="http://www.w3.org/2000/svg" width="1573" height="1182" viewBox="0 0 1573 1182">
<defs>
  <linearGradient id="mask" x1="0" y1="0" x2="0.7" y2="1">
    <stop offset="0%"  stop-color="#126b45"/>
    <stop offset="55%" stop-color="#0b4f33"/>
    <stop offset="100%" stop-color="#0b4f33"/>
  </linearGradient>
  <linearGradient id="cu" x1="0" y1="0" x2="0.6" y2="1">
    <stop offset="0%" stop-color="#f5d98a"/>
    <stop offset="100%" stop-color="#c9a544"/>
  </linearGradient>
  <radialGradient id="padg" cx="0.35" cy="0.3" r="0.85">
    <stop offset="0%" stop-color="#fdf0bd"/>
    <stop offset="45%" stop-color="#f5d98a"/>
    <stop offset="100%" stop-color="#c9a544"/>
  </radialGradient>
  <radialGradient id="vig" cx="0.5" cy="0.45" r="0.78">
    <stop offset="55%" stop-color="#000" stop-opacity="0"/>
    <stop offset="100%" stop-color="#000" stop-opacity="0.10"/>
  </radialGradient>
  <filter id="soft"><feGaussianBlur stdDeviation="0.26"/></filter>
  <filter id="drop" x="-20%" y="-20%" width="140%" height="140%">
    <feDropShadow dx="0" dy="2.9" stdDeviation="4.8"
                  flood-color="#000" flood-opacity="0.55"/>
  </filter>
  <clipPath id="board">
    <rect x="88.0" y="88.0" width="1397.0"
          height="1005.8" rx="52.8"/>
  </clipPath>
</defs>
<rect width="100%" height="100%" fill="#0a0c10"/>
<rect x="88.0" y="88.0" width="1397.0" height="1005.8" rx="52.8" fill="url(#mask)" filter="url(#drop)"/>
<g clip-path="url(#board)">
<rect x="88.0" y="88.0" width="1397.0" height="1005.8" fill="#5fd39a" opacity="0.13"/>
<polyline points="743.60,513.04 761.20,513.04" fill="none" stroke="#5fd39a" stroke-width="4.40" stroke-linecap="round" stroke-linejoin="round" opacity="0.42"/>
<polyline points="761.20,513.04 770.00,513.04 774.40,517.44 866.80,517.44 880.00,530.64 906.40,530.64 990.00,614.24 1106.22,614.24" fill="none" stroke="#5fd39a" stroke-width="17.60" stroke-linecap="round" stroke-linejoin="round" opacity="0.42"/>
<polyline points="1106.22,614.24 1117.60,614.24 1122.00,618.64" fill="none" stroke="#5fd39a" stroke-width="4.40" stroke-linecap="round" stroke-linejoin="round" opacity="0.42"/>
<polyline points="730.40,284.24 742.85,296.69" fill="none" stroke="#5fd39a" stroke-width="4.40" stroke-linecap="round" stroke-linejoin="round" opacity="1.0"/>
<polyline points="742.85,296.69 783.20,337.04 783.20,403.04 787.60,407.44 787.60,526.24 809.60,548.24 809.60,602.86" fill="none" stroke="#5fd39a" stroke-width="17.60" stroke-linecap="round" stroke-linejoin="round" opacity="1.0"/>
<polyline points="809.60,602.86 809.60,614.24 814.00,618.64" fill="none" stroke="#5fd39a" stroke-width="4.40" stroke-linecap="round" stroke-linejoin="round" opacity="1.0"/>
<polyline points="453.20,618.64 440.75,631.09" fill="none" stroke="#5fd39a" stroke-width="4.40" stroke-linecap="round" stroke-linejoin="round" opacity="1.0"/>
<polyline points="440.75,631.09 440.00,631.84 426.80,631.84 422.40,636.24 413.60,636.24 409.20,640.64 409.20,715.44 382.80,715.44 377.65,720.59" fill="none" stroke="#5fd39a" stroke-width="17.60" stroke-linecap="round" stroke-linejoin="round" opacity="1.0"/>
<polyline points="377.65,720.59 365.20,733.04" fill="none" stroke="#5fd39a" stroke-width="4.40" stroke-linecap="round" stroke-linejoin="round" opacity="1.0"/>
<polyline points="453.20,618.64 462.00,609.84 466.40,609.84 466.93,609.31" fill="none" stroke="#5fd39a" stroke-width="4.40" stroke-linecap="round" stroke-linejoin="round" opacity="1.0"/>
<polyline points="466.93,609.31 470.80,605.44 479.60,605.44 484.00,601.04 488.40,601.04 506.00,583.44 523.60,583.44 580.80,526.24 602.80,526.24 607.95,521.09" fill="none" stroke="#5fd39a" stroke-width="17.60" stroke-linecap="round" stroke-linejoin="round" opacity="1.0"/>
<polyline points="607.95,521.09 620.40,508.64" fill="none" stroke="#5fd39a" stroke-width="4.40" stroke-linecap="round" stroke-linejoin="round" opacity="1.0"/>
<polyline points="730.40,504.24 717.95,516.69" fill="none" stroke="#5fd39a" stroke-width="4.40" stroke-linecap="round" stroke-linejoin="round" opacity="1.0"/>
<polyline points="717.95,516.69 677.60,557.04 677.60,570.24 664.40,583.44 664.40,715.44 694.67,745.71" fill="none" stroke="#5fd39a" stroke-width="17.60" stroke-linecap="round" stroke-linejoin="round" opacity="1.0"/>
<polyline points="694.67,745.71 699.60,750.64 699.60,755.04 704.00,759.44" fill="none" stroke="#5fd39a" stroke-width="4.40" stroke-linecap="round" stroke-linejoin="round" opacity="1.0"/>
<polyline points="453.20,618.64 440.75,606.19" fill="none" stroke="#5fd39a" stroke-width="4.40" stroke-linecap="round" stroke-linejoin="round" opacity="1.0"/>
<polyline points="440.75,606.19 440.00,605.44 418.00,605.44 409.20,596.64 409.20,521.84 294.80,521.84 267.65,494.69" fill="none" stroke="#5fd39a" stroke-width="17.60" stroke-linecap="round" stroke-linejoin="round" opacity="1.0"/>
<polyline points="267.65,494.69 255.20,482.24" fill="none" stroke="#5fd39a" stroke-width="4.40" stroke-linecap="round" stroke-linejoin="round" opacity="1.0"/>
<polyline points="730.40,504.24 739.20,513.04 743.60,513.04" fill="none" stroke="#5fd39a" stroke-width="17.60" stroke-linecap="round" stroke-linejoin="round" opacity="1.0"/>
<polyline points="1122.00,618.64 1122.00,618.64" fill="none" stroke="#5fd39a" stroke-width="17.60" stroke-linecap="round" stroke-linejoin="round" opacity="1.0"/>
<polyline points="620.40,508.64 638.00,508.64" fill="none" stroke="#5fd39a" stroke-width="4.40" stroke-linecap="round" stroke-linejoin="round" opacity="1.0"/>
<polyline points="638.00,508.64 714.62,508.64" fill="none" stroke="#5fd39a" stroke-width="17.60" stroke-linecap="round" stroke-linejoin="round" opacity="1.0"/>
<polyline points="714.62,508.64 726.00,508.64 730.40,504.24" fill="none" stroke="#5fd39a" stroke-width="4.40" stroke-linecap="round" stroke-linejoin="round" opacity="1.0"/>
<polyline points="814.00,618.64 831.60,618.64" fill="none" stroke="#5fd39a" stroke-width="4.40" stroke-linecap="round" stroke-linejoin="round" opacity="1.0"/>
<polyline points="831.60,618.64 880.00,618.64" fill="none" stroke="#5fd39a" stroke-width="17.60" stroke-linecap="round" stroke-linejoin="round" opacity="1.0"/>
<polyline points="880.00,618.64 897.60,618.64" fill="none" stroke="#5fd39a" stroke-width="4.40" stroke-linecap="round" stroke-linejoin="round" opacity="1.0"/>
<polyline points="756.80,618.64 756.80,636.24" fill="none" stroke="#5fd39a" stroke-width="4.40" stroke-linecap="round" stroke-linejoin="round" opacity="1.0"/>
<polyline points="756.80,636.24 756.80,636.24 792.00,671.44 792.00,706.64 914.67,829.31" fill="none" stroke="#5fd39a" stroke-width="6.60" stroke-linecap="round" stroke-linejoin="round" opacity="1.0"/>
<polyline points="914.67,829.31 919.60,834.24 919.60,838.64 924.00,843.04" fill="none" stroke="#5fd39a" stroke-width="4.40" stroke-linecap="round" stroke-linejoin="round" opacity="1.0"/>
<polyline points="453.20,728.64 462.00,737.44 466.40,737.44 466.93,737.97" fill="none" stroke="#5fd39a" stroke-width="4.40" stroke-linecap="round" stroke-linejoin="round" opacity="1.0"/>
<polyline points="466.93,737.97 470.80,741.84 475.20,741.84 563.20,829.84 563.20,961.84 576.40,975.04 576.40,979.44 585.20,988.24 651.20,988.24 699.60,939.84 699.60,858.82" fill="none" stroke="#5fd39a" stroke-width="6.60" stroke-linecap="round" stroke-linejoin="round" opacity="1.0"/>
<polyline points="699.60,858.82 699.60,847.44 704.00,843.04" fill="none" stroke="#5fd39a" stroke-width="4.40" stroke-linecap="round" stroke-linejoin="round" opacity="1.0"/>
<polyline points="453.20,785.84 462.00,794.64 466.40,794.64 466.93,795.17" fill="none" stroke="#5fd39a" stroke-width="4.40" stroke-linecap="round" stroke-linejoin="round" opacity="1.0"/>
<polyline points="466.93,795.17 470.80,799.04 475.20,799.04 541.20,865.04 541.20,983.84 554.40,997.04 554.40,1001.44 563.20,1010.24 673.20,1010.24 805.20,878.24 959.20,878.24 959.20,807.84 932.80,781.44 932.80,773.39" fill="none" stroke="#5fd39a" stroke-width="6.60" stroke-linecap="round" stroke-linejoin="round" opacity="1.0"/>
<polyline points="932.80,773.39 932.80,768.24 924.00,759.44" fill="none" stroke="#5fd39a" stroke-width="4.40" stroke-linecap="round" stroke-linejoin="round" opacity="1.0"/>
<polyline points="453.20,785.84 435.60,785.84" fill="none" stroke="#5fd39a" stroke-width="4.40" stroke-linecap="round" stroke-linejoin="round" opacity="1.0"/>
<polyline points="435.60,785.84 422.40,785.84 404.80,768.24 330.00,768.24 330.00,693.44 347.60,693.44 352.75,688.29" fill="none" stroke="#5fd39a" stroke-width="6.60" stroke-linecap="round" stroke-linejoin="round" opacity="1.0"/>
<polyline points="352.75,688.29 365.20,675.84" fill="none" stroke="#5fd39a" stroke-width="4.40" stroke-linecap="round" stroke-linejoin="round" opacity="1.0"/>
<polyline points="730.40,284.24 742.85,296.69" fill="none" stroke="#ffffff" stroke-width="0.97" stroke-linecap="round" stroke-linejoin="round" opacity="0.22"/>
<polyline points="742.85,296.69 783.20,337.04 783.20,403.04 787.60,407.44 787.60,526.24 809.60,548.24 809.60,602.86" fill="none" stroke="#ffffff" stroke-width="3.87" stroke-linecap="round" stroke-linejoin="round" opacity="0.22"/>
<polyline points="809.60,602.86 809.60,614.24 814.00,618.64" fill="none" stroke="#ffffff" stroke-width="0.97" stroke-linecap="round" stroke-linejoin="round" opacity="0.22"/>
<polyline points="453.20,618.64 440.75,631.09" fill="none" stroke="#ffffff" stroke-width="0.97" stroke-linecap="round" stroke-linejoin="round" opacity="0.22"/>
<polyline points="440.75,631.09 440.00,631.84 426.80,631.84 422.40,636.24 413.60,636.24 409.20,640.64 409.20,715.44 382.80,715.44 377.65,720.59" fill="none" stroke="#ffffff" stroke-width="3.87" stroke-linecap="round" stroke-linejoin="round" opacity="0.22"/>
<polyline points="377.65,720.59 365.20,733.04" fill="none" stroke="#ffffff" stroke-width="0.97" stroke-linecap="round" stroke-linejoin="round" opacity="0.22"/>
<polyline points="453.20,618.64 462.00,609.84 466.40,609.84 466.93,609.31" fill="none" stroke="#ffffff" stroke-width="0.97" stroke-linecap="round" stroke-linejoin="round" opacity="0.22"/>
<polyline points="466.93,609.31 470.80,605.44 479.60,605.44 484.00,601.04 488.40,601.04 506.00,583.44 523.60,583.44 580.80,526.24 602.80,526.24 607.95,521.09" fill="none" stroke="#ffffff" stroke-width="3.87" stroke-linecap="round" stroke-linejoin="round" opacity="0.22"/>
<polyline points="607.95,521.09 620.40,508.64" fill="none" stroke="#ffffff" stroke-width="0.97" stroke-linecap="round" stroke-linejoin="round" opacity="0.22"/>
<polyline points="730.40,504.24 717.95,516.69" fill="none" stroke="#ffffff" stroke-width="0.97" stroke-linecap="round" stroke-linejoin="round" opacity="0.22"/>
<polyline points="717.95,516.69 677.60,557.04 677.60,570.24 664.40,583.44 664.40,715.44 694.67,745.71" fill="none" stroke="#ffffff" stroke-width="3.87" stroke-linecap="round" stroke-linejoin="round" opacity="0.22"/>
<polyline points="694.67,745.71 699.60,750.64 699.60,755.04 704.00,759.44" fill="none" stroke="#ffffff" stroke-width="0.97" stroke-linecap="round" stroke-linejoin="round" opacity="0.22"/>
<polyline points="453.20,618.64 440.75,606.19" fill="none" stroke="#ffffff" stroke-width="0.97" stroke-linecap="round" stroke-linejoin="round" opacity="0.22"/>
<polyline points="440.75,606.19 440.00,605.44 418.00,605.44 409.20,596.64 409.20,521.84 294.80,521.84 267.65,494.69" fill="none" stroke="#ffffff" stroke-width="3.87" stroke-linecap="round" stroke-linejoin="round" opacity="0.22"/>
<polyline points="267.65,494.69 255.20,482.24" fill="none" stroke="#ffffff" stroke-width="0.97" stroke-linecap="round" stroke-linejoin="round" opacity="0.22"/>
<polyline points="730.40,504.24 739.20,513.04 743.60,513.04" fill="none" stroke="#ffffff" stroke-width="3.87" stroke-linecap="round" stroke-linejoin="round" opacity="0.22"/>
<polyline points="1122.00,618.64 1122.00,618.64" fill="none" stroke="#ffffff" stroke-width="3.87" stroke-linecap="round" stroke-linejoin="round" opacity="0.22"/>
<polyline points="620.40,508.64 638.00,508.64" fill="none" stroke="#ffffff" stroke-width="0.97" stroke-linecap="round" stroke-linejoin="round" opacity="0.22"/>
<polyline points="638.00,508.64 714.62,508.64" fill="none" stroke="#ffffff" stroke-width="3.87" stroke-linecap="round" stroke-linejoin="round" opacity="0.22"/>
<polyline points="714.62,508.64 726.00,508.64 730.40,504.24" fill="none" stroke="#ffffff" stroke-width="0.97" stroke-linecap="round" stroke-linejoin="round" opacity="0.22"/>
<polyline points="814.00,618.64 831.60,618.64" fill="none" stroke="#ffffff" stroke-width="0.97" stroke-linecap="round" stroke-linejoin="round" opacity="0.22"/>
<polyline points="831.60,618.64 880.00,618.64" fill="none" stroke="#ffffff" stroke-width="3.87" stroke-linecap="round" stroke-linejoin="round" opacity="0.22"/>
<polyline points="880.00,618.64 897.60,618.64" fill="none" stroke="#ffffff" stroke-width="0.97" stroke-linecap="round" stroke-linejoin="round" opacity="0.22"/>
<polyline points="756.80,618.64 756.80,636.24" fill="none" stroke="#ffffff" stroke-width="0.97" stroke-linecap="round" stroke-linejoin="round" opacity="0.22"/>
<polyline points="756.80,636.24 756.80,636.24 792.00,671.44 792.00,706.64 914.67,829.31" fill="none" stroke="#ffffff" stroke-width="1.45" stroke-linecap="round" stroke-linejoin="round" opacity="0.22"/>
<polyline points="914.67,829.31 919.60,834.24 919.60,838.64 924.00,843.04" fill="none" stroke="#ffffff" stroke-width="0.97" stroke-linecap="round" stroke-linejoin="round" opacity="0.22"/>
<polyline points="453.20,728.64 462.00,737.44 466.40,737.44 466.93,737.97" fill="none" stroke="#ffffff" stroke-width="0.97" stroke-linecap="round" stroke-linejoin="round" opacity="0.22"/>
<polyline points="466.93,737.97 470.80,741.84 475.20,741.84 563.20,829.84 563.20,961.84 576.40,975.04 576.40,979.44 585.20,988.24 651.20,988.24 699.60,939.84 699.60,858.82" fill="none" stroke="#ffffff" stroke-width="1.45" stroke-linecap="round" stroke-linejoin="round" opacity="0.22"/>
<polyline points="699.60,858.82 699.60,847.44 704.00,843.04" fill="none" stroke="#ffffff" stroke-width="0.97" stroke-linecap="round" stroke-linejoin="round" opacity="0.22"/>
<polyline points="453.20,785.84 462.00,794.64 466.40,794.64 466.93,795.17" fill="none" stroke="#ffffff" stroke-width="0.97" stroke-linecap="round" stroke-linejoin="round" opacity="0.22"/>
<polyline points="466.93,795.17 470.80,799.04 475.20,799.04 541.20,865.04 541.20,983.84 554.40,997.04 554.40,1001.44 563.20,1010.24 673.20,1010.24 805.20,878.24 959.20,878.24 959.20,807.84 932.80,781.44 932.80,773.39" fill="none" stroke="#ffffff" stroke-width="1.45" stroke-linecap="round" stroke-linejoin="round" opacity="0.22"/>
<polyline points="932.80,773.39 932.80,768.24 924.00,759.44" fill="none" stroke="#ffffff" stroke-width="0.97" stroke-linecap="round" stroke-linejoin="round" opacity="0.22"/>
<polyline points="453.20,785.84 435.60,785.84" fill="none" stroke="#ffffff" stroke-width="0.97" stroke-linecap="round" stroke-linejoin="round" opacity="0.22"/>
<polyline points="435.60,785.84 422.40,785.84 404.80,768.24 330.00,768.24 330.00,693.44 347.60,693.44 352.75,688.29" fill="none" stroke="#ffffff" stroke-width="1.45" stroke-linecap="round" stroke-linejoin="round" opacity="0.22"/>
<polyline points="352.75,688.29 365.20,675.84" fill="none" stroke="#ffffff" stroke-width="0.97" stroke-linecap="round" stroke-linejoin="round" opacity="0.22"/>
<rect x="430.8" y="250.2" width="208.5" height="681.5" rx="4.0" fill="none" stroke="#e8eee4" stroke-opacity="0.72" stroke-width="1.21" filter="url(#soft)"/>
<rect x="337.2" y="546.3" width="58.7" height="202.8" rx="4.0" fill="none" stroke="#e8eee4" stroke-opacity="0.72" stroke-width="1.21" filter="url(#soft)"/>
<rect x="708.2" y="244.9" width="378.4" height="302.7" rx="4.0" fill="none" stroke="#e8eee4" stroke-opacity="0.72" stroke-width="1.21" filter="url(#soft)"/>
<rect x="682.2" y="592.3" width="151.0" height="54.9" rx="4.0" fill="none" stroke="#e8eee4" stroke-opacity="0.72" stroke-width="1.21" filter="url(#soft)"/>
<rect x="885.6" y="592.3" width="247.1" height="54.9" rx="4.0" fill="none" stroke="#e8eee4" stroke-opacity="0.72" stroke-width="1.21" filter="url(#soft)"/>
<rect x="690.0" y="732.0" width="247.1" height="54.9" rx="4.0" fill="none" stroke="#e8eee4" stroke-opacity="0.72" stroke-width="1.21" filter="url(#soft)"/>
<rect x="690.0" y="815.8" width="247.1" height="54.9" rx="4.0" fill="none" stroke="#e8eee4" stroke-opacity="0.72" stroke-width="1.21" filter="url(#soft)"/>
<rect x="235.1" y="452.6" width="151.0" height="54.9" rx="4.0" fill="none" stroke="#e8eee4" stroke-opacity="0.72" stroke-width="1.21" filter="url(#soft)"/>
<circle cx="451.2" cy="954.1" r="14.30" fill="url(#padg)"/>
<circle cx="451.2" cy="954.1" r="6.50" fill="#0b0d10" opacity="0.92"/>
<circle cx="451.2" cy="898.3" r="14.30" fill="url(#padg)"/>
<circle cx="451.2" cy="898.3" r="6.50" fill="#0b0d10" opacity="0.92"/>
<circle cx="451.2" cy="842.4" r="14.30" fill="url(#padg)"/>
<circle cx="451.2" cy="842.4" r="6.50" fill="#0b0d10" opacity="0.92"/>
<circle cx="451.2" cy="786.5" r="14.30" fill="url(#padg)"/>
<circle cx="451.2" cy="786.5" r="6.50" fill="#0b0d10" opacity="0.92"/>
<circle cx="451.2" cy="730.6" r="14.30" fill="url(#padg)"/>
<circle cx="451.2" cy="730.6" r="6.50" fill="#0b0d10" opacity="0.92"/>
<circle cx="451.2" cy="674.7" r="14.30" fill="url(#padg)"/>
<circle cx="451.2" cy="674.7" r="6.50" fill="#0b0d10" opacity="0.92"/>
<circle cx="451.2" cy="618.9" r="14.30" fill="url(#padg)"/>
<circle cx="451.2" cy="618.9" r="6.50" fill="#0b0d10" opacity="0.92"/>
<circle cx="451.2" cy="563.0" r="14.30" fill="url(#padg)"/>
<circle cx="451.2" cy="563.0" r="6.50" fill="#0b0d10" opacity="0.92"/>
<circle cx="451.2" cy="507.1" r="14.30" fill="url(#padg)"/>
<circle cx="451.2" cy="507.1" r="6.50" fill="#0b0d10" opacity="0.92"/>
<circle cx="451.2" cy="451.2" r="14.30" fill="url(#padg)"/>
<circle cx="451.2" cy="451.2" r="6.50" fill="#0b0d10" opacity="0.92"/>
<circle cx="451.2" cy="395.3" r="14.30" fill="url(#padg)"/>
<circle cx="451.2" cy="395.3" r="6.50" fill="#0b0d10" opacity="0.92"/>
<circle cx="451.2" cy="339.5" r="14.30" fill="url(#padg)"/>
<circle cx="451.2" cy="339.5" r="6.50" fill="#0b0d10" opacity="0.92"/>
<circle cx="451.2" cy="283.6" r="14.30" fill="url(#padg)"/>
<circle cx="451.2" cy="283.6" r="6.50" fill="#0b0d10" opacity="0.92"/>
<circle cx="451.2" cy="227.7" r="14.30" fill="url(#padg)"/>
<circle cx="451.2" cy="227.7" r="6.50" fill="#0b0d10" opacity="0.92"/>
<circle cx="618.9" cy="954.1" r="14.30" fill="url(#padg)"/>
<circle cx="618.9" cy="954.1" r="6.50" fill="#0b0d10" opacity="0.92"/>
<circle cx="618.9" cy="898.3" r="14.30" fill="url(#padg)"/>
<circle cx="618.9" cy="898.3" r="6.50" fill="#0b0d10" opacity="0.92"/>
<circle cx="618.9" cy="842.4" r="14.30" fill="url(#padg)"/>
<circle cx="618.9" cy="842.4" r="6.50" fill="#0b0d10" opacity="0.92"/>
<circle cx="618.9" cy="786.5" r="14.30" fill="url(#padg)"/>
<circle cx="618.9" cy="786.5" r="6.50" fill="#0b0d10" opacity="0.92"/>
<circle cx="618.9" cy="730.6" r="14.30" fill="url(#padg)"/>
<circle cx="618.9" cy="730.6" r="6.50" fill="#0b0d10" opacity="0.92"/>
<circle cx="618.9" cy="674.7" r="14.30" fill="url(#padg)"/>
<circle cx="618.9" cy="674.7" r="6.50" fill="#0b0d10" opacity="0.92"/>
<circle cx="618.9" cy="618.9" r="14.30" fill="url(#padg)"/>
<circle cx="618.9" cy="618.9" r="6.50" fill="#0b0d10" opacity="0.92"/>
<circle cx="618.9" cy="563.0" r="14.30" fill="url(#padg)"/>
<circle cx="618.9" cy="563.0" r="6.50" fill="#0b0d10" opacity="0.92"/>
<circle cx="618.9" cy="507.1" r="14.30" fill="url(#padg)"/>
<circle cx="618.9" cy="507.1" r="6.50" fill="#0b0d10" opacity="0.92"/>
<circle cx="618.9" cy="451.2" r="14.30" fill="url(#padg)"/>
<circle cx="618.9" cy="451.2" r="6.50" fill="#0b0d10" opacity="0.92"/>
<circle cx="618.9" cy="395.3" r="14.30" fill="url(#padg)"/>
<circle cx="618.9" cy="395.3" r="6.50" fill="#0b0d10" opacity="0.92"/>
<circle cx="618.9" cy="339.5" r="14.30" fill="url(#padg)"/>
<circle cx="618.9" cy="339.5" r="6.50" fill="#0b0d10" opacity="0.92"/>
<circle cx="618.9" cy="283.6" r="14.30" fill="url(#padg)"/>
<circle cx="618.9" cy="283.6" r="6.50" fill="#0b0d10" opacity="0.92"/>
<circle cx="618.9" cy="227.7" r="14.30" fill="url(#padg)"/>
<circle cx="618.9" cy="227.7" r="6.50" fill="#0b0d10" opacity="0.92"/>
<circle cx="366.5" cy="731.5" r="16.50" fill="url(#padg)"/>
<circle cx="366.5" cy="731.5" r="7.50" fill="#0b0d10" opacity="0.92"/>
<circle cx="366.5" cy="675.6" r="16.50" fill="url(#padg)"/>
<circle cx="366.5" cy="675.6" r="7.50" fill="#0b0d10" opacity="0.92"/>
<circle cx="366.5" cy="619.7" r="16.50" fill="url(#padg)"/>
<circle cx="366.5" cy="619.7" r="7.50" fill="#0b0d10" opacity="0.92"/>
<circle cx="366.5" cy="563.9" r="16.50" fill="url(#padg)"/>
<circle cx="366.5" cy="563.9" r="7.50" fill="#0b0d10" opacity="0.92"/>
<circle cx="732.4" cy="506.2" r="17.60" fill="url(#padg)"/>
<circle cx="732.4" cy="506.2" r="8.00" fill="#0b0d10" opacity="0.92"/>
<circle cx="732.4" cy="286.2" r="17.60" fill="url(#padg)"/>
<circle cx="732.4" cy="286.2" r="8.00" fill="#0b0d10" opacity="0.92"/>
<circle cx="1062.4" cy="506.2" r="17.60" fill="url(#padg)"/>
<circle cx="1062.4" cy="506.2" r="8.00" fill="#0b0d10" opacity="0.92"/>
<circle cx="1062.4" cy="396.2" r="17.60" fill="url(#padg)"/>
<circle cx="1062.4" cy="396.2" r="8.00" fill="#0b0d10" opacity="0.92"/>
<circle cx="1062.4" cy="286.2" r="17.60" fill="url(#padg)"/>
<circle cx="1062.4" cy="286.2" r="8.00" fill="#0b0d10" opacity="0.92"/>
<circle cx="701.8" cy="619.7" r="14.30" fill="url(#padg)"/>
<circle cx="701.8" cy="619.7" r="6.50" fill="#0b0d10" opacity="0.92"/>
<circle cx="757.7" cy="619.7" r="14.30" fill="url(#padg)"/>
<circle cx="757.7" cy="619.7" r="6.50" fill="#0b0d10" opacity="0.92"/>
<circle cx="813.6" cy="619.7" r="14.30" fill="url(#padg)"/>
<circle cx="813.6" cy="619.7" r="6.50" fill="#0b0d10" opacity="0.92"/>
<circle cx="897.4" cy="619.7" r="14.30" fill="url(#padg)"/>
<circle cx="897.4" cy="619.7" r="6.50" fill="#0b0d10" opacity="0.92"/>
<circle cx="1120.9" cy="619.7" r="14.30" fill="url(#padg)"/>
<circle cx="1120.9" cy="619.7" r="6.50" fill="#0b0d10" opacity="0.92"/>
<circle cx="701.8" cy="759.4" r="14.30" fill="url(#padg)"/>
<circle cx="701.8" cy="759.4" r="6.50" fill="#0b0d10" opacity="0.92"/>
<circle cx="925.3" cy="759.4" r="14.30" fill="url(#padg)"/>
<circle cx="925.3" cy="759.4" r="6.50" fill="#0b0d10" opacity="0.92"/>
<circle cx="701.8" cy="843.3" r="14.30" fill="url(#padg)"/>
<circle cx="701.8" cy="843.3" r="6.50" fill="#0b0d10" opacity="0.92"/>
<circle cx="925.3" cy="843.3" r="14.30" fill="url(#padg)"/>
<circle cx="925.3" cy="843.3" r="6.50" fill="#0b0d10" opacity="0.92"/>
<circle cx="254.8" cy="480.0" r="14.30" fill="url(#padg)"/>
<circle cx="254.8" cy="480.0" r="6.50" fill="#0b0d10" opacity="0.92"/>
<circle cx="366.5" cy="480.0" r="14.30" fill="url(#padg)"/>
<circle cx="366.5" cy="480.0" r="6.50" fill="#0b0d10" opacity="0.92"/>
<circle cx="453.2" cy="561.4" r="8.80" fill="url(#cu)" opacity="0.75"/>
<circle cx="453.2" cy="561.4" r="4.40" fill="#0b0d10" opacity="0.85"/>
<circle cx="620.4" cy="618.6" r="8.80" fill="url(#cu)" opacity="0.75"/>
<circle cx="620.4" cy="618.6" r="4.40" fill="#0b0d10" opacity="0.85"/>
<circle cx="365.2" cy="565.8" r="8.80" fill="url(#cu)" opacity="0.75"/>
<circle cx="365.2" cy="565.8" r="4.40" fill="#0b0d10" opacity="0.85"/>
<circle cx="704.0" cy="618.6" r="8.80" fill="url(#cu)" opacity="0.75"/>
<circle cx="704.0" cy="618.6" r="4.40" fill="#0b0d10" opacity="0.85"/>
<circle cx="365.2" cy="482.2" r="8.80" fill="url(#cu)" opacity="0.75"/>
<circle cx="365.2" cy="482.2" r="4.40" fill="#0b0d10" opacity="0.85"/>
<circle cx="743.6" cy="513.0" r="8.80" fill="url(#cu)" opacity="0.75"/>
<circle cx="743.6" cy="513.0" r="4.40" fill="#0b0d10" opacity="0.85"/>
<circle cx="1122.0" cy="618.6" r="8.80" fill="url(#cu)" opacity="0.75"/>
<circle cx="1122.0" cy="618.6" r="4.40" fill="#0b0d10" opacity="0.85"/>
<text x="535.0" y="170.5" fill="#e8eee4" fill-opacity="0.95" font-family="Inter,Helvetica,sans-serif" font-size="13.6" font-weight="600" letter-spacing="0.4" text-anchor="middle">U1</text>
<text x="366.5" y="505.6" fill="#e8eee4" fill-opacity="0.95" font-family="Inter,Helvetica,sans-serif" font-size="10.9" font-weight="600" letter-spacing="0.4" text-anchor="middle">U2</text>
<text x="897.4" y="196.0" fill="#e8eee4" fill-opacity="0.95" font-family="Inter,Helvetica,sans-serif" font-size="13.6" font-weight="600" letter-spacing="0.4" text-anchor="middle">K1</text>
<text x="757.7" y="563.6" fill="#e8eee4" fill-opacity="0.95" font-family="Inter,Helvetica,sans-serif" font-size="13.6" font-weight="600" letter-spacing="0.4" text-anchor="middle">Q1</text>
<text x="1009.1" y="563.6" fill="#e8eee4" fill-opacity="0.95" font-family="Inter,Helvetica,sans-serif" font-size="13.6" font-weight="600" letter-spacing="0.4" text-anchor="middle">D1</text>
<text x="813.6" y="703.3" fill="#e8eee4" fill-opacity="0.95" font-family="Inter,Helvetica,sans-serif" font-size="13.6" font-weight="600" letter-spacing="0.4" text-anchor="middle">R1</text>
<text x="813.6" y="787.2" fill="#e8eee4" fill-opacity="0.95" font-family="Inter,Helvetica,sans-serif" font-size="13.6" font-weight="600" letter-spacing="0.4" text-anchor="middle">R2</text>
<text x="310.6" y="423.9" fill="#e8eee4" fill-opacity="0.95" font-family="Inter,Helvetica,sans-serif" font-size="13.6" font-weight="600" letter-spacing="0.4" text-anchor="middle">C1</text>
<rect x="88.0" y="88.0" width="1397.0" height="1005.8" fill="url(#vig)"/>
</g>
<rect x="88.0" y="88.0" width="1397.0" height="1005.8" rx="52.8" fill="none" stroke="#c9b46b" stroke-opacity="0.55" stroke-width="1.4"/>
<text x="88.0" y="48" fill="#8b93a3" font-family="ui-monospace,monospace" font-size="9">dht22_relay_monitor   7/12 routed   0 DRC errors   7 vias   179 mm</text>
</svg>